# xmcd
#
# Track frame offsets:
#	150
#	14487
#	32337
#	54562
#	86250
#	105381
#	119843
#	150050
#	174531
#	190212
#	204212
#	216262
#	234343
#	260749
#
# Disc length: 4440 seconds
#
# Revision: 1
# Processed by: cddbd v1.5.1PL2 Copyright (c) Steve Scherf et al.
# Submitted via: audiograbber 1.83.01
#
DISCID=ae11560e
DTITLE=Collégial - AUTOUR DU BLUES VOL.2  - CD2
DYEAR=2003
DGENRE=Blues
TTITLE0=Même le blues m' abandonne
TTITLE1=Bring it on home to me
TTITLE2=Ain't that peculiar
TTITLE3=Your precious love
TTITLE4=Please send me someone to love
TTITLE5=Get down woman
TTITLE6=Hookie coochie man
TTITLE7=Let the good times roll
TTITLE8=Mystery train
TTITLE9=Ain't that good news
TTITLE10=Rip it up
TTITLE11=Kansas city
TTITLE12=Man upstairs
TTITLE13=Piste de données
EXTD=Enregistré du 3 au 9 Avril 2003 au studio Ferber and Marcadet
EXTT0=Tanya Ssaint Val - Michael Jones
EXTT1=Francis Cabrel - Berverly Jo Scott - M. Jones
EXTT2=Slim Batteux
EXTT3=Tanya Saint Val - Ahmed Mouici
EXTT4=Tanya Saint Val - Patrick Verbeke
EXTT5=Gildas Arzel - M. Jones
EXTT6=Paul Personne - P. Verbeke
EXTT7=Manu Galvin - P. Verbeke
EXTT8=Dick Rivers
EXTT9=Luc Bertin
EXTT10=M. Jones
EXTT11=A. Mouici - M. Jones
EXTT12=Bernard Allison - P. Verbeke
EXTT13=
PLAYORDER=
